<?xml version="1.0" standalone="no"?>
<!DOCTYPE svg PUBLIC "-//W3C//DTD SVG 20010904//EN"
 "http://www.w3.org/TR/2001/REC-SVG-20010904/DTD/svg10.dtd">
<svg version="1.0" xmlns="http://www.w3.org/2000/svg"
 width="500pt" height="500pt" viewBox="0 0 500 500"
 preserveAspectRatio="xMidYMid meet">
  <g transform="translate(0.000000,500) scale(0.100000,-0.100000)"
  fill="#000000" stroke="none">
    <path d="M0 2500 l0 -2500 2500 0 2500 0 0 2500 0 2500 -2500 0 -2500 0 0
    -2500z m4990 0 l0 -2490 -2490 0 -2490 0 0 2490 0 2490 2490 0 2490 0 0 -2490z"/>
    <path d="M450 2505 l0 -2055 2060 0 2060 0 0 1400 0 1400 -985 0 -985 0 0 655
    0 655 -1075 0 -1075 0 0 -2055z m1970 1310 l0 -565 -895 0 -895 0 0 565 0 565
    895 0 895 0 0 -565z m1970 -1310 l0 -565 -1880 0 -1880 0 0 565 0 565 1880 0
    1880 0 0 -565z m0 -1310 l0 -565 -1880 0 -1880 0 0 565 0 565 1880 0 1880 0 0
    -565z"/>
    <path d="M2790 3995 l0 -555 880 0 880 0 0 555 0 555 -880 0 -880 0 0 -555z"/>
  </g>
</svg>
